<svg width="94" height="163" viewBox="0 0 94 163" fill="none" xmlns="http://www.w3.org/2000/svg">
<path fill-rule="evenodd" clip-rule="evenodd" d="M48.19 146.824C26.56 141.704 5.08998 125.254 3.91998 99.0338L2.53998 67.9938C7.53998 67.6438 11.66 64.9138 13.93 60.4438C16.2 55.9738 15.97 51.0338 13.3 46.7938C24.7 40.2338 37.26 34.7338 48.2 32.4838C58.21 34.5538 69.97 39.0238 80.56 44.8438C81.21 45.3738 82.32 47.3838 82.4 48.0238C80.4 51.9738 80.41 56.4038 82.46 60.4438C83.32 62.1338 84.44 63.5738 85.78 64.7338C87.32 66.0638 89.61 66.4538 91.32 66.0338C92.03 66.5038 93.26 67.6538 93.84 68.3938L92.47 99.0238C91.3 125.234 69.83 141.694 48.2 146.814L48.19 146.824Z" fill="url(#paint0_linear_433_89514)"/>
<path fill-rule="evenodd" clip-rule="evenodd" d="M45.66 144.874C24.03 139.754 2.56001 123.304 1.39001 97.0838L0.0100098 66.0438C5.01001 65.6938 9.13002 62.9638 11.4 58.4938C13.67 54.0238 13.44 49.0838 10.77 44.8438C22.17 38.2838 34.73 32.7838 45.67 30.5338C56.61 32.7938 69.16 38.2938 80.57 44.8438C77.9 49.0838 77.67 54.0238 79.94 58.4938C82.21 62.9638 86.33 65.6938 91.33 66.0438L89.95 97.0838C88.78 123.294 67.31 139.754 45.68 144.874H45.66Z" fill="url(#paint1_radial_433_89514)"/>
<path fill-rule="evenodd" clip-rule="evenodd" d="M45.66 144.874V30.5338C34.72 32.7938 22.17 38.2938 10.76 44.8438C13.43 49.0838 13.66 54.0238 11.39 58.4938C9.12 62.9638 5 65.6938 0 66.0438L1.38 97.0838C2.55 123.294 24.02 139.754 45.65 144.874H45.66Z" fill="url(#paint2_radial_433_89514)"/>
<path fill-rule="evenodd" clip-rule="evenodd" d="M45.66 37.4838C36.64 39.5538 27.37 43.6238 19.27 47.9138C20.26 52.4538 19.66 57.2238 17.46 61.5738C15.16 66.1038 11.5 69.4738 7.04999 71.3038L8.18999 96.7838C9.13999 118.154 26.23 132.734 45.67 137.864C65.11 132.734 82.19 118.144 83.15 96.7838L84.29 71.3038C79.84 69.4638 76.18 66.0938 73.88 61.5738C71.67 57.2238 71.08 52.4538 72.07 47.9138C63.97 43.6338 54.7 39.5538 45.68 37.4838H45.66Z" fill="url(#paint3_linear_433_89514)"/>
<path fill-rule="evenodd" clip-rule="evenodd" d="M45.66 37.4838V137.854C65.1 132.724 82.18 118.134 83.14 96.7738L84.28 71.2938C79.83 69.4538 76.17 66.0838 73.87 61.5638C71.66 57.2138 71.07 52.4438 72.06 47.9038C63.96 43.6238 54.69 39.5438 45.67 37.4738L45.66 37.4838Z" fill="url(#paint4_linear_433_89514)"/>
<g style="mix-blend-mode:multiply">
<path fill-rule="evenodd" clip-rule="evenodd" d="M26.93 129.274C26.65 100.934 26.68 72.5438 26.93 44.1238C26.54 44.3038 26.16 44.4838 25.78 44.6638C26.28 72.5938 26.35 100.514 25.78 128.444C26.16 128.724 26.54 129.004 26.93 129.274Z" fill="#60812F"/>
</g>
<g style="mix-blend-mode:multiply">
<path fill-rule="evenodd" clip-rule="evenodd" d="M45.08 37.6238C45.39 70.9838 45.38 104.344 45.08 137.704C45.27 137.754 45.46 137.804 45.66 137.864C45.85 137.814 46.04 137.764 46.24 137.704C45.94 104.344 45.93 70.9838 46.24 37.6238C46.05 37.5738 45.86 37.5338 45.66 37.4938C45.47 37.5338 45.28 37.5838 45.08 37.6238Z" fill="#60812F"/>
</g>
<g style="mix-blend-mode:multiply">
<path fill-rule="evenodd" clip-rule="evenodd" d="M64.39 129.274C64.67 100.934 64.64 72.5438 64.39 44.1238C64.78 44.3038 65.16 44.4838 65.54 44.6638C65.04 72.5938 64.97 100.514 65.54 128.444C65.16 128.724 64.78 129.004 64.39 129.274Z" fill="#722935"/>
</g>
<path style="mix-blend-mode:multiply" opacity="0.75" fill-rule="evenodd" clip-rule="evenodd" d="M28.78 49.4438C30.18 47.2038 37.56 44.8638 40.04 44.5738C41.05 44.4538 42.1 44.6138 43.03 44.9838C44.29 45.4938 44.88 46.5338 45.17 47.6538C45.15 44.3138 45.12 40.9638 45.09 37.6238C38.99 39.0738 32.8 41.4238 26.93 44.1238C26.89 48.2138 26.86 52.2938 26.83 56.3838C27.09 54.0238 27.67 51.2138 28.78 49.4338V49.4438Z" fill="url(#paint5_radial_433_89514)"/>
<path style="mix-blend-mode:multiply" fill-rule="evenodd" clip-rule="evenodd" d="M62.54 49.4438C61.14 47.2038 53.76 44.8638 51.28 44.5738C50.27 44.4538 49.22 44.6138 48.29 44.9838C47.03 45.4938 46.44 46.5338 46.15 47.6538C46.17 44.3138 46.2 40.9638 46.23 37.6238C52.33 39.0738 58.53 41.4238 64.39 44.1238C64.43 48.2138 64.46 52.3038 64.49 56.3838C64.23 54.0238 63.65 51.2138 62.54 49.4338V49.4438Z" fill="url(#paint6_radial_433_89514)"/>
<path style="mix-blend-mode:multiply" opacity="0.75" fill-rule="evenodd" clip-rule="evenodd" d="M41.61 133.444C36.93 132.824 31.23 128.664 28.8 124.694C27.75 122.964 27.18 121.174 26.84 119.184C26.86 122.544 26.89 125.914 26.93 129.274C32.35 133.084 38.58 135.924 45.09 137.714C45.11 135.964 45.12 134.214 45.14 132.474C44.64 133.494 43.82 133.744 41.62 133.454L41.61 133.444Z" fill="url(#paint7_radial_433_89514)"/>
<path style="mix-blend-mode:multiply" fill-rule="evenodd" clip-rule="evenodd" d="M49.71 133.444C54.39 132.824 60.09 128.664 62.52 124.694C63.57 122.964 64.14 121.174 64.48 119.184C64.46 122.544 64.43 125.914 64.39 129.274C58.97 133.084 52.74 135.924 46.23 137.714C46.21 135.964 46.2 134.214 46.18 132.474C46.68 133.494 47.5 133.754 49.7 133.454L49.71 133.444Z" fill="url(#paint8_radial_433_89514)"/>
<path style="mix-blend-mode:multiply" opacity="0.75" fill-rule="evenodd" clip-rule="evenodd" d="M21.27 119.224C14.92 116.074 10.39 106.154 8.33997 98.9038C9.53997 111.394 16.34 121.424 25.79 128.444C25.86 124.894 25.92 121.344 25.98 117.794C25.21 119.504 24.04 120.594 21.28 119.224H21.27Z" fill="url(#paint9_radial_433_89514)"/>
<path style="mix-blend-mode:multiply" fill-rule="evenodd" clip-rule="evenodd" d="M70.06 119.224C76.41 116.074 80.94 106.154 82.99 98.9038C81.79 111.394 74.99 121.424 65.54 128.444C65.47 124.894 65.41 121.344 65.35 117.794C66.12 119.504 67.29 120.594 70.05 119.224H70.06Z" fill="url(#paint10_radial_433_89514)"/>
<path style="mix-blend-mode:multiply" fill-rule="evenodd" clip-rule="evenodd" d="M65.35 56.9438C66.22 54.2838 67.74 54.6838 69.12 58.2638C73.43 69.4338 76.57 70.3838 81.79 76.1738C83.27 77.8138 83.64 80.3038 83.77 82.6738L84.28 71.3038C79.83 69.4638 76.17 66.0938 73.87 61.5738C71.66 57.2238 71.07 52.4538 72.06 47.9138C71.34 47.5338 70.61 47.1538 69.88 46.7838C68.46 46.0938 67.02 45.4138 65.56 44.7538C65.49 48.8138 65.42 52.8838 65.37 56.9438H65.35Z" fill="url(#paint11_radial_433_89514)"/>
<path style="mix-blend-mode:multiply" opacity="0.75" fill-rule="evenodd" clip-rule="evenodd" d="M25.97 56.9438C25.1 54.2838 23.95 56.6738 22.83 60.3338C20.06 69.4438 16.4 72.5838 12.24 76.7138C8.95998 79.9738 8.18997 81.9438 7.68997 85.8938L7.03998 71.2938C11.49 69.4538 15.15 66.0838 17.45 61.5638C19.66 57.2138 20.25 52.4438 19.26 47.9038C19.98 47.5238 20.71 47.1438 21.44 46.7738C22.86 46.0838 24.3 45.4038 25.76 44.7438C25.83 48.8038 25.9 52.8738 25.95 56.9338L25.97 56.9438Z" fill="url(#paint12_radial_433_89514)"/>
<g style="mix-blend-mode:screen" opacity="0.5">
<path fill-rule="evenodd" clip-rule="evenodd" d="M25.31 121.504C24.95 112.444 24.73 101.354 24.73 89.3537C24.73 77.3637 24.94 66.2637 25.31 57.2037C25.67 66.2637 25.89 77.3537 25.89 89.3537C25.89 101.344 25.68 112.444 25.31 121.504V121.504Z" fill="#99FFFF"/>
</g>
<g style="mix-blend-mode:screen" opacity="0.5">
<path fill-rule="evenodd" clip-rule="evenodd" d="M44.54 135.054C44.18 122.184 43.96 106.404 43.96 89.3637C43.96 72.3237 44.17 56.5437 44.54 43.6737C44.9 56.5437 45.12 72.3237 45.12 89.3637C45.12 106.404 44.91 122.184 44.54 135.054Z" fill="#99FFFF"/>
</g>
<g style="mix-blend-mode:screen" opacity="0.75">
<path fill-rule="evenodd" clip-rule="evenodd" d="M63.6499 121.504C63.2899 112.444 63.0699 101.354 63.0699 89.3537C63.0699 77.3637 63.2799 66.2637 63.6499 57.2037C64.0099 66.2637 64.2299 77.3537 64.2299 89.3537C64.2299 101.344 64.0199 112.444 63.6499 121.504V121.504Z" fill="#FF886C"/>
</g>
<path style="mix-blend-mode:screen" opacity="0.5" fill-rule="evenodd" clip-rule="evenodd" d="M31.91 53.0637C30.9 58.0537 30.71 63.1837 30.53 68.2637C30.04 81.9137 29.23 99.9737 31.57 113.404C32.2 117.044 33.3 120.624 34.79 123.994C36.11 126.974 43.21 134.284 43.2 127.104C43.18 110.644 43.24 93.7137 43.32 77.0137C43.36 67.6137 43.89 57.9737 43.55 48.8037C43.34 43.1637 33.34 46.0737 31.92 53.0637H31.91Z" fill="url(#paint13_radial_433_89514)"/>
<path style="mix-blend-mode:screen" fill-rule="evenodd" clip-rule="evenodd" d="M62.34 55.3738C62.6 69.8038 62.58 102.114 62.69 113.404C62.72 117.094 60.96 120.624 59.47 123.994C58.15 126.974 51.3 134.284 51.06 127.104C50.29 103.434 49.77 76.4738 50.71 51.1038C50.92 45.4638 62.21 48.2238 62.34 55.3638V55.3738Z" fill="url(#paint14_radial_433_89514)"/>
<path style="mix-blend-mode:screen" opacity="0.5" fill-rule="evenodd" clip-rule="evenodd" d="M23.5 72.5238C23.48 72.0338 22.89 71.5038 22.41 71.5438C19.49 71.7838 16.3 75.2838 15.16 77.7638C14.32 79.5938 14.25 81.7338 14.24 83.7538C14.18 94.5938 14.66 101.494 18.96 111.614C21.02 116.474 24.13 116.504 24.14 110.114C24.16 97.5838 24.07 85.0438 23.51 72.5238H23.5Z" fill="url(#paint15_radial_433_89514)"/>
<path style="mix-blend-mode:screen" fill-rule="evenodd" clip-rule="evenodd" d="M70.02 74.2937C69.53 83.7537 69.44 107.744 71.12 110.834C72.31 113.044 74.61 111.084 75.68 109.964C78.06 107.484 80.09 103.354 80.79 100.174C81.89 95.1537 82.27 84.3537 80.67 79.3737C79.63 76.1337 70.63 62.5337 70.02 74.2837V74.2937Z" fill="url(#paint16_radial_433_89514)"/>
<path fill-rule="evenodd" clip-rule="evenodd" d="M10.49 97.9338L9.34999 72.4538L7.04999 71.3038L8.18999 96.7838C8.96999 114.184 20.44 127.084 35.17 134.044C21.56 126.854 11.23 114.414 10.5 97.9338H10.49Z" fill="url(#paint17_linear_433_89514)"/>
<path fill-rule="evenodd" clip-rule="evenodd" d="M9.34999 72.4538C13.8 70.6138 17.46 67.2438 19.76 62.7238C21.97 58.3738 22.56 53.6038 21.57 49.0638L19.27 47.9138C20.26 52.4538 19.66 57.2238 17.46 61.5738C15.16 66.1038 11.5 69.4738 7.04999 71.3038L9.34999 72.4538V72.4538Z" fill="url(#paint18_linear_433_89514)"/>
<path fill-rule="evenodd" clip-rule="evenodd" d="M21.58 49.0638C29.68 44.7838 38.95 40.7038 47.97 38.6338C55.36 40.3238 62.92 43.3738 69.87 46.7738C62.31 42.9138 53.89 39.3638 45.67 37.4838C36.65 39.5538 27.38 43.6238 19.28 47.9138L21.58 49.0638V49.0638Z" fill="url(#paint19_linear_433_89514)"/>
<path style="mix-blend-mode:screen" opacity="0.75" fill-rule="evenodd" clip-rule="evenodd" d="M6.21997 64.1339C12.25 61.5239 16.77 54.6939 15.18 46.1539C15.82 42.0539 26.09 37.3439 30.89 35.0739C24.15 37.7239 17.27 41.1139 10.77 44.8539C13.44 49.0939 13.67 54.0339 11.4 58.5039C10.17 60.9239 8.38997 62.8438 6.22997 64.1438L6.21997 64.1339Z" fill="url(#paint20_radial_433_89514)"/>
<path style="mix-blend-mode:screen" opacity="0.5" fill-rule="evenodd" clip-rule="evenodd" d="M1.47 68.8238C1.44 66.8738 2.75999 65.8138 4.18999 65.1238C2.88999 65.6238 1.48 65.9438 0 66.0438L1.38 97.0838C2.13 113.864 11.2 126.644 23.3 135.014C18.45 130.934 13.73 126.884 10.38 121.214C3.04 108.784 2.03 102.824 1.46 68.8238H1.47Z" fill="url(#paint21_radial_433_89514)"/>
<path style="mix-blend-mode:multiply" fill-rule="evenodd" clip-rule="evenodd" d="M7.23999 75.6138C7.87999 74.7538 8.78999 75.9138 8.89999 76.9738C9.30999 80.8238 9.36999 84.7038 9.55999 88.5738C10.13 100.044 9.77999 104.504 14.57 115.234C15.2 116.654 15.85 117.974 16.38 119.244C21.19 125.554 27.77 130.544 35.16 134.044C21.55 126.854 11.22 114.414 10.49 97.9338L9.34999 72.4538L7.04999 71.3038L7.23999 75.6138V75.6138Z" fill="url(#paint22_radial_433_89514)"/>
<path style="mix-blend-mode:screen" opacity="0.75" fill-rule="evenodd" clip-rule="evenodd" d="M40.68 33.0238C42.94 33.7338 44.63 36.5638 42.26 38.0338C41.79 38.3238 41.29 38.5738 40.78 38.7938C42.41 38.3038 44.04 37.8638 45.66 37.4938V30.5338C41.8 31.3338 37.75 32.5338 33.61 34.0338C36.04 33.2538 38.81 32.4338 40.68 33.0238Z" fill="url(#paint23_radial_433_89514)"/>
<path style="mix-blend-mode:screen" opacity="0.5" fill-rule="evenodd" clip-rule="evenodd" d="M40.24 138.044C41.68 138.984 41.74 142.454 39.32 142.334C38.33 142.284 37.31 142.134 36.34 141.944C39.4 143.154 42.53 144.134 45.66 144.874V137.864C38.2 135.894 31.08 132.524 25.09 127.924C28.44 130.994 32.49 133.384 36.36 135.704C37.95 136.654 39.42 137.514 40.24 138.054V138.044Z" fill="url(#paint24_radial_433_89514)"/>
<path fill-rule="evenodd" clip-rule="evenodd" d="M48.19 146.824L45.66 144.864C37.39 142.904 29.15 139.294 22.05 134.114C29.68 140.354 38.92 144.624 48.19 146.824Z" fill="#234368"/>
<path style="mix-blend-mode:multiply" opacity="0.75" fill-rule="evenodd" clip-rule="evenodd" d="M19.73 51.9938C20.93 51.8038 21.64 53.1738 21.43 55.1938C20.8 61.2438 18.06 67.8038 12.19 70.4838C11.01 71.0238 9.87998 70.6938 9.64998 70.0038C8.81998 70.5038 7.94998 70.9338 7.03998 71.3038L9.33997 72.4538C13.79 70.6138 17.45 67.2438 19.75 62.7238C21.96 58.3738 22.55 53.6038 21.56 49.0638L19.26 47.9138C19.55 49.2638 19.71 50.6238 19.72 51.9938H19.73Z" fill="url(#paint25_radial_433_89514)"/>
<path style="mix-blend-mode:multiply" fill-rule="evenodd" clip-rule="evenodd" d="M40.82 38.7738C41.98 38.6538 44.14 39.0438 41.47 40.1238C39.89 40.7638 38.24 41.2138 36.66 41.8538C33.75 43.0338 30.89 44.3738 28 45.5938C27.03 46.0038 26.07 46.4338 25.06 46.7438C23.55 47.2138 22.28 47.2438 21.83 46.5838C20.97 47.0238 20.11 47.4638 19.28 47.9038L21.58 49.0538C29.68 44.7738 38.95 40.6938 47.97 38.6238C55.36 40.3138 62.92 43.3638 69.87 46.7638C62.31 42.9038 53.89 39.3538 45.67 37.4738C44.06 37.8438 42.45 38.2738 40.83 38.7638L40.82 38.7738Z" fill="url(#paint26_radial_433_89514)"/>
<path style="mix-blend-mode:multiply" opacity="0.5" fill-rule="evenodd" clip-rule="evenodd" d="M48.11 32.5038C48.16 32.3938 48.22 32.3038 48.29 32.2438C48.73 31.8538 49.34 31.6538 49.94 31.5538C48.49 31.1638 47.07 30.8238 45.66 30.5338V37.4938C45.85 37.5338 46.04 37.5838 46.24 37.6238C52.34 39.0738 58.54 41.4238 64.4 44.1238C64.79 44.3038 65.17 44.4838 65.55 44.6638C65.71 44.7338 65.86 44.8138 66.02 44.8838C61.86 42.5538 54.43 39.3938 49.9 37.1738C48.96 36.7138 48.5 36.2438 48.27 35.7338C48.01 35.1738 47.75 33.3038 48.12 32.5038H48.11Z" fill="url(#paint27_radial_433_89514)"/>
<path style="mix-blend-mode:multiply" fill-rule="evenodd" clip-rule="evenodd" d="M79.2 56.8338C78.5 53.7438 78.68 49.2838 82.24 48.3438C82.29 48.2338 82.34 48.1338 82.39 48.0338C82.31 47.3938 81.21 45.3738 80.55 44.8538C78.21 48.5738 77.74 52.8338 79.2 56.8438V56.8338Z" fill="url(#paint28_radial_433_89514)"/>
<path style="mix-blend-mode:multiply" fill-rule="evenodd" clip-rule="evenodd" d="M69.81 136.184C68.08 137.014 67.4 136.394 67.4 135.424C60.74 139.904 53.21 143.074 45.66 144.864L48.19 146.824C69.82 141.704 91.29 125.254 92.46 99.0338L93.83 68.4038C93.25 67.6638 92.02 66.5138 91.31 66.0438L91.18 69.0138C92.52 70.2738 92.84 71.5638 92.78 74.0338C92.64 79.0238 92.31 90.0638 91.69 98.8938C91.3 104.474 90.02 110.024 87.97 115.094C84.71 123.144 77.78 132.344 69.81 136.184V136.184Z" fill="url(#paint29_radial_433_89514)"/>
<path fill-rule="evenodd" clip-rule="evenodd" d="M32.9683 152.639C33.4978 153.371 33.9592 154.411 34.0955 155.196C34.1376 155.551 33.8553 157.072 33.7797 157.45C33.7162 157.61 33.3005 158.425 33.1503 158.647C32.3311 159.506 30.5326 160.883 29.0965 161.615C28.7156 161.737 28.314 161.83 27.8619 161.895C27.7629 161.889 27.6632 161.863 27.5635 161.837C27.2918 161.412 26.9999 160.977 26.5996 160.547C25.9738 159.325 25.118 157.182 24.8219 156.066C25.0506 155.268 25.229 154.442 25.3171 153.58C25.9316 152.797 26.6605 152.179 27.4203 151.599C27.742 151.479 28.074 151.369 28.4365 151.287C29.4786 151.428 32.1261 152.283 32.9884 152.648L32.9683 152.639Z" fill="url(#paint30_radial_433_89514)"/>
<path fill-rule="evenodd" clip-rule="evenodd" d="M30.2436 158.849C29.9096 159.463 28.5033 160.757 27.1988 161.297C27.3234 161.47 27.4385 161.654 27.5533 161.827C27.6628 161.853 27.7622 161.869 27.8516 161.886C28.3037 161.821 28.7054 161.728 29.0863 161.606C30.5223 160.873 32.3208 159.496 33.14 158.638C32.4897 158.404 31.1788 158.48 30.2337 158.849L30.2436 158.849Z" fill="url(#paint31_radial_433_89514)"/>
<path fill-rule="evenodd" clip-rule="evenodd" d="M30.2436 158.848C31.1887 158.479 32.4996 158.403 33.1499 158.637C33.3099 158.414 33.7159 157.6 33.7794 157.44C33.8553 157.072 34.1372 155.541 34.0951 155.187C33.92 155.262 33.7152 155.338 33.4693 155.367C32.3756 156.284 31.2316 157.174 30.2693 158.176C30.216 158.346 30.2074 158.662 30.2436 158.848Z" fill="url(#paint32_radial_433_89514)"/>
<path fill-rule="evenodd" clip-rule="evenodd" d="M27.1988 161.296C28.5034 160.757 29.9097 159.463 30.2436 158.848C30.2173 158.662 30.2259 158.345 30.2694 158.176C30.0596 158.391 29.8502 158.615 29.6609 158.849L28.7364 159.8C28.583 159.934 28.4093 160.049 28.2046 160.125C27.7468 160.309 27.1302 160.469 26.589 160.528C26.8253 160.786 27.0218 161.036 27.1985 161.287L27.1988 161.296Z" fill="url(#paint33_radial_433_89514)"/>
<path fill-rule="evenodd" clip-rule="evenodd" d="M26.5894 160.538C27.1302 160.469 27.7471 160.319 28.2049 160.135C28.1623 160.048 28.1292 159.95 28.0962 159.853C28.0555 159.538 28.0341 159.213 28.0223 158.877C27.7802 159.014 27.1174 159.265 26.5861 159.323C26.6239 159.835 26.585 160.133 26.5791 160.528L26.5894 160.538Z" fill="url(#paint34_radial_433_89514)"/>
<path fill-rule="evenodd" clip-rule="evenodd" d="M28.0322 158.877C28.044 159.212 28.0555 159.538 28.1061 159.852C28.1391 159.95 28.1722 160.048 28.2148 160.135C28.4195 160.059 28.5933 159.944 28.7466 159.81L29.6712 158.859C29.8605 158.625 30.0702 158.41 30.2796 158.186C31.2521 157.193 32.3859 156.294 33.4796 155.376C33.2951 155.185 33.1197 154.974 32.9736 154.752C32.1948 154.513 31.4075 154.314 30.6032 154.194C30.0105 154.471 29.4896 154.826 29.0195 155.217L28.9912 155.258C28.6488 155.912 28.3462 156.575 28.1038 157.265C28.0444 157.82 28.0237 158.354 28.0319 158.867L28.0322 158.877Z" fill="url(#paint35_radial_433_89514)"/>
<path fill-rule="evenodd" clip-rule="evenodd" d="M26.6058 159.322C27.1273 159.264 27.8 159.013 28.0421 158.876C28.0237 158.353 28.0542 157.819 28.1141 157.274C27.5809 157.559 27.016 157.786 26.3687 157.918C26.5192 158.545 26.5842 158.987 26.6161 159.331L26.6058 159.322Z" fill="url(#paint36_radial_433_89514)"/>
<path fill-rule="evenodd" clip-rule="evenodd" d="M26.6059 159.322C26.574 158.978 26.509 158.535 26.3586 157.909C25.9727 157.33 25.1996 156.132 24.942 155.548C24.8986 155.718 24.8552 155.887 24.8114 156.047C25.1174 157.162 25.9731 159.305 26.5891 160.528C26.5949 160.132 26.6437 159.834 26.596 159.322L26.6059 159.322Z" fill="url(#paint37_radial_433_89514)"/>
<path fill-rule="evenodd" clip-rule="evenodd" d="M26.3586 157.909C27.0058 157.777 27.5707 157.55 28.1039 157.265C28.3462 156.574 28.6485 155.902 28.9913 155.258C28.8311 154.918 28.7098 154.557 28.6377 154.194C28.6736 153.531 28.6099 152.842 28.4658 152.116C28.1833 151.948 27.8913 151.79 27.5803 151.653C27.2871 152.582 25.9972 153.536 25.3066 153.56C25.2319 154.245 25.1069 154.901 24.9519 155.548C25.2095 156.132 25.9826 157.329 26.3684 157.908L26.3586 157.909Z" fill="url(#paint38_radial_433_89514)"/>
<path fill-rule="evenodd" clip-rule="evenodd" d="M28.6279 154.194C28.6999 154.557 28.8213 154.918 28.9814 155.258L29.0096 155.218C29.4795 154.816 30.0003 154.462 30.5934 154.194C30.4795 153.763 30.2764 153.326 29.9842 152.882C30.0654 152.662 30.0736 152.336 29.9673 152.122C29.5421 152.107 28.8002 152.074 28.4661 152.126C28.6102 152.851 28.6642 153.541 28.6381 154.204L28.6279 154.194Z" fill="url(#paint39_radial_433_89514)"/>
<path fill-rule="evenodd" clip-rule="evenodd" d="M33.557 153.645C33.3191 153.9 33.0327 154.464 32.9635 154.743C33.1195 154.964 33.2952 155.185 33.4695 155.367C33.7154 155.338 33.9201 155.262 34.0953 155.187C34.0099 154.725 33.8125 154.169 33.557 153.645V153.645Z" fill="url(#paint40_radial_433_89514)"/>
<path fill-rule="evenodd" clip-rule="evenodd" d="M25.3066 153.56C25.9971 153.536 27.2874 152.592 27.5803 151.653C27.52 151.625 27.4598 151.598 27.3999 151.58C26.6401 152.16 25.9112 152.778 25.2967 153.561L25.3066 153.56Z" fill="url(#paint41_radial_433_89514)"/>
<path style="mix-blend-mode:screen" fill-rule="evenodd" clip-rule="evenodd" d="M30.9999 154.802C31.9384 154.808 32.7016 155.443 32.473 155.965C32.3997 156.125 32.3066 156.287 32.2033 156.438C32.6255 156.088 33.0573 155.727 33.4795 155.376C33.295 155.185 33.1197 154.974 32.9736 154.752C32.1947 154.513 31.4074 154.313 30.6031 154.193C30.0104 154.471 29.4895 154.825 29.0194 155.217L28.9912 155.258C28.6487 155.912 28.3461 156.574 28.1038 157.264C28.0588 157.671 28.0332 158.067 28.0373 158.462C28.1656 157.618 28.261 156.963 28.7279 156.195C29.0829 155.62 29.893 154.781 30.9996 154.792L30.9999 154.802Z" fill="url(#paint42_radial_433_89514)"/>
<path style="mix-blend-mode:multiply" opacity="0.5" fill-rule="evenodd" clip-rule="evenodd" d="M27.2109 157.434C26.7222 157.58 26.2301 157.35 25.8988 156.917C25.5464 156.446 25.1902 155.866 25.1548 155.422C25.1181 154.94 25.3288 154.192 25.572 153.808C25.7311 153.555 26.654 153.118 27.0002 152.572C26.4764 153.124 25.7603 153.544 25.3065 153.56C25.2318 154.244 25.1068 154.901 24.9518 155.548C25.2094 156.132 25.9825 157.329 26.3683 157.908C27.0156 157.777 27.5805 157.55 28.1136 157.264C28.356 156.574 28.6583 155.902 29.001 155.257C28.8729 154.985 28.7642 154.703 28.6949 154.419C28.7149 154.704 28.7601 155.147 28.7075 155.337C28.5745 155.766 28.2266 156.825 27.8519 157.125C27.6887 157.259 27.465 157.356 27.2307 157.433L27.2109 157.434Z" fill="url(#paint43_radial_433_89514)"/>
<path fill-rule="evenodd" clip-rule="evenodd" d="M29.9838 152.872C29.4516 153.187 28.7989 153.724 28.6377 154.194C28.7097 154.556 28.8311 154.918 28.9912 155.258L29.0194 155.217C29.4892 154.815 30.0101 154.461 30.6032 154.193C30.4892 153.763 30.2862 153.326 29.994 152.882L29.9838 152.872Z" fill="url(#paint44_radial_433_89514)"/>
<path style="mix-blend-mode:multiply" fill-rule="evenodd" clip-rule="evenodd" d="M31.8519 158.515C31.1977 158.449 30.8278 158.324 31.2291 157.658C31.5556 157.113 32.5246 156.022 33.3879 155.854C33.7606 155.781 33.9152 155.963 34.0116 156.177C34.0756 155.75 34.1209 155.354 34.1055 155.196C33.9304 155.272 33.7256 155.348 33.4797 155.376C33.0578 155.737 32.6257 156.088 32.2035 156.439C31.532 157.005 30.8705 157.572 30.2797 158.185C30.2264 158.355 30.2178 158.672 30.254 158.858C30.7413 158.673 31.3199 158.554 31.8621 158.525L31.8519 158.515Z" fill="url(#paint45_radial_433_89514)"/>
<path style="mix-blend-mode:screen" fill-rule="evenodd" clip-rule="evenodd" d="M32.6538 154.645C31.8964 154.454 30.9513 154.26 30.6958 154.299C30.3199 154.282 29.5128 154.923 29.1519 155.331C28.658 155.892 28.3701 156.692 28.094 157.265C28.2638 156.478 28.6038 155.755 28.9099 155.191C28.8156 155.037 28.7371 154.773 28.7316 154.615C28.796 154.761 28.9209 154.944 28.9907 154.961C29.2108 155.042 30.1924 154.307 30.4416 154.09C30.4635 153.872 30.3541 153.57 30.2676 153.356C30.4446 153.616 30.5921 153.878 30.6896 154.121C31.2863 154.238 32.0338 154.429 32.6439 154.645L32.6538 154.645Z" fill="url(#paint46_radial_433_89514)"/>
<path style="mix-blend-mode:screen" fill-rule="evenodd" clip-rule="evenodd" d="M31.6548 158.532C31.2422 158.596 30.6739 158.725 30.356 158.953C29.9222 159.255 29.7701 159.705 29.4271 160.062C29.0077 160.492 28.3741 160.732 27.7722 161.029C28.3879 160.563 28.9772 160.187 29.4717 159.646C29.6617 159.432 29.9589 159.174 30.0988 158.942C30.1549 158.851 30.2205 158.75 30.2367 158.651C30.2776 158.689 30.3177 158.707 30.3575 158.716C30.5065 158.74 30.7293 158.614 30.8568 158.59C31.0728 158.552 31.4276 158.53 31.6548 158.532V158.532Z" fill="url(#paint47_radial_433_89514)"/>
<path style="mix-blend-mode:screen" fill-rule="evenodd" clip-rule="evenodd" d="M28.0942 159.793C28.081 159.418 28.0477 159.034 28.0443 158.659C28.0353 158.403 28.046 158.145 28.0468 157.889C27.9913 158.276 28.0369 158.728 27.6598 158.959C27.5245 159.043 27.3688 159.108 27.2236 159.192C27.3508 159.158 27.7313 159.026 27.8511 159.061C27.8909 159.069 27.9314 159.098 27.9539 159.176C28.0207 159.391 28.0474 159.587 28.0942 159.793V159.793Z" fill="url(#paint48_radial_433_89514)"/>
<path style="mix-blend-mode:screen" fill-rule="evenodd" clip-rule="evenodd" d="M32.3371 159.397C31.6933 159.627 30.7987 159.747 30.0878 159.753C29.546 160.354 28.7939 160.875 28.0704 161.365C27.9378 161.527 27.8747 161.697 27.8615 161.885C28.3136 161.82 28.7153 161.727 29.0962 161.605C30.1636 161.064 31.426 160.17 32.3371 159.397V159.397Z" fill="url(#paint49_radial_433_89514)"/>
<path style="mix-blend-mode:screen" fill-rule="evenodd" clip-rule="evenodd" d="M24.7791 155.406C24.2911 157.537 25.6204 159.663 27.7512 160.151C29.8821 160.639 32.0082 159.31 32.4962 157.179C32.9841 155.048 31.6549 152.922 29.524 152.434C27.3931 151.946 25.267 153.275 24.7791 155.406Z" fill="url(#paint50_radial_433_89514)"/>
<path style="mix-blend-mode:screen" fill-rule="evenodd" clip-rule="evenodd" d="M31.6257 154.622C31.4633 155.339 31.9033 156.054 32.6202 156.217C33.3371 156.379 34.0525 155.939 34.2149 155.222C34.3773 154.505 33.9373 153.79 33.2204 153.627C32.5035 153.465 31.7881 153.905 31.6257 154.622Z" fill="url(#paint51_radial_433_89514)"/>
<path fill-rule="evenodd" clip-rule="evenodd" d="M51.0479 99.4756C48.5824 98.1797 45.9714 96.958 43.2925 96.0547L65.4421 0.000887658C65.9128 9.16007 65.6698 18.2456 64.6914 25.2434C62.1567 41.3334 54.5633 82.3436 51.0479 99.4756V99.4756Z" fill="url(#paint52_radial_433_89514)"/>
<path fill-rule="evenodd" clip-rule="evenodd" d="M65.4422 0.00103247L43.2926 96.0549C40.4944 95.6892 37.609 95.6525 34.8264 95.7307C39.1683 78.7869 50.297 38.6004 55.0623 23.0245C57.2454 16.3003 61.0037 8.02933 65.4422 0.00103247V0.00103247Z" fill="url(#paint53_radial_433_89514)"/>
<path fill-rule="evenodd" clip-rule="evenodd" d="M43.2926 96.0549C45.9711 96.9482 48.5727 98.1801 51.0481 99.4758C47.956 101.985 45.4949 103.899 43.7037 111.656L39.9 110.782L43.2926 96.0549Z" fill="url(#paint54_radial_433_89514)"/>
<path fill-rule="evenodd" clip-rule="evenodd" d="M43.2925 96.0549L39.8998 110.782L36.096 109.909C37.8868 102.142 36.5142 99.3456 34.8267 95.7406C37.6093 95.6624 40.4943 95.6892 43.2928 96.0647L43.2925 96.0549Z" fill="url(#paint55_radial_433_89514)"/>
<path fill-rule="evenodd" clip-rule="evenodd" d="M42.0095 109.266C43.0507 105.457 44.5574 102.243 47.8342 99.3717C48.2078 99.0425 48.592 98.7327 48.9758 98.413C49.6792 98.7536 50.3731 99.1045 51.0575 99.4656C47.9654 101.975 45.5043 103.889 43.7132 111.646L41.5823 111.158L42.019 109.256L42.0095 109.266Z" fill="url(#paint56_linear_433_89514)"/>
<path fill-rule="evenodd" clip-rule="evenodd" d="M48.9952 98.4022C51.4307 86.5035 53.6762 74.5423 55.8831 62.6023C57.2035 55.5036 58.4941 48.3961 59.7448 41.2801C60.7082 35.8237 61.6612 30.3479 62.4953 24.8664C63.0722 21.0533 63.3296 17.1428 63.4305 13.2773C63.4736 11.6955 63.4867 10.1048 63.4801 8.51484L65.4421 0.000887658C65.9128 9.16007 65.6698 18.2456 64.6914 25.2434C62.1567 41.3334 54.5633 82.3436 51.0479 99.4756C50.3636 99.1145 49.6697 98.7636 48.9663 98.4229L48.9952 98.4022Z" fill="url(#paint57_linear_433_89514)"/>
<path fill-rule="evenodd" clip-rule="evenodd" d="M38.674 108.505C39.4062 104.617 39.4595 101.079 37.7672 97.0594C37.5733 96.602 37.3699 96.1548 37.1563 95.6981C36.3759 95.696 35.5962 95.7136 34.8264 95.7308C36.514 99.3357 37.8866 102.132 36.0958 109.899L38.2267 110.387L38.6634 108.485L38.674 108.505Z" fill="url(#paint58_linear_433_89514)"/>
<path fill-rule="evenodd" clip-rule="evenodd" d="M37.1453 95.6689C40.1683 83.9075 43.3897 72.1688 46.6223 60.4692C48.5501 53.5072 50.4979 46.5543 52.4856 39.6099C54.0166 34.2816 55.5472 28.9435 57.1979 23.6506C58.3423 19.9657 59.8347 16.3475 61.4391 12.8241C62.0994 11.3786 62.78 9.95209 63.4804 8.52489L65.4425 0.0109516C61.0138 8.0389 57.2456 16.3103 55.0625 23.0344C50.2972 38.6103 39.1685 78.7968 34.8267 95.7406C35.5961 95.7135 36.3762 95.7058 37.1565 95.708L37.1555 95.6784L37.1456 95.6787L37.1453 95.6689Z" fill="url(#paint59_linear_433_89514)"/>
<path fill-rule="evenodd" clip-rule="evenodd" d="M42.6588 98.8131L45.6444 96.9301L58.9329 33.9307L57.9962 32.2945L56.4434 33.3566L40.805 95.8165L42.6588 98.8131Z" fill="url(#paint60_linear_433_89514)"/>
<path fill-rule="evenodd" clip-rule="evenodd" d="M42.6587 98.8131L40.805 95.8165L56.4434 33.3566L57.9962 32.2944L42.6587 98.8131Z" fill="url(#paint61_linear_433_89514)"/>
<path d="M30.6385 150.982C29.9015 150.811 29.2065 150.707 28.7013 150.665C27.8695 150.606 27.2937 150.804 27.1822 151.282C27.0706 151.76 27.5006 152.189 28.2723 152.508C28.7531 152.698 29.4122 152.902 30.159 153.073C30.8959 153.245 31.591 153.349 32.0962 153.39C32.928 153.45 33.5037 153.252 33.6153 152.774C33.7269 152.296 33.2969 151.866 32.5255 151.558C32.0447 151.367 31.3856 151.163 30.6388 150.992L30.6385 150.982Z" fill="url(#paint62_linear_433_89514)"/>
<g style="mix-blend-mode:multiply">
<path fill-rule="evenodd" clip-rule="evenodd" d="M28.6915 150.665C29.2065 150.707 29.8917 150.811 30.6287 150.982C31.3656 151.154 32.0345 151.358 32.5154 151.548C32.8359 151.675 33.0979 151.824 33.2814 151.985C33.373 152.061 33.4064 152.169 33.381 152.288C33.3552 152.398 33.2695 152.49 33.1617 152.513C32.9172 152.581 32.6212 152.591 32.2848 152.574C31.7697 152.532 31.0845 152.428 30.3476 152.257C29.6107 152.085 28.9417 151.881 28.4609 151.691C28.1404 151.564 27.8783 151.415 27.6949 151.254C27.6033 151.178 27.5699 151.07 27.5953 150.951C27.6211 150.841 27.7068 150.75 27.8146 150.726C28.0591 150.658 28.355 150.648 28.6915 150.665Z" fill="#9D9D9C"/>
</g>
<path style="mix-blend-mode:screen" opacity="0.5" fill-rule="evenodd" clip-rule="evenodd" d="M33.1393 152.721C33.2003 152.769 33.2234 152.866 33.1963 152.937C32.82 153.75 28.9532 152.77 28.5474 151.905C29.7172 152.308 31.4133 152.792 32.6546 152.699C32.842 152.692 33.0784 152.674 33.1492 152.721L33.1393 152.721Z" fill="url(#paint63_linear_433_89514)"/>
<path fill-rule="evenodd" clip-rule="evenodd" d="M35.0676 144.653L29.4214 143.351C29.6633 145.169 28.782 149.033 27.6825 150.909C27.6229 151.177 28.836 151.688 30.3895 152.048C31.9528 152.408 33.2591 152.48 33.3287 152.211C33.1533 150.034 34.0645 146.18 35.0676 144.653Z" fill="url(#paint64_linear_433_89514)"/>
<path style="mix-blend-mode:multiply" fill-rule="evenodd" clip-rule="evenodd" d="M32.5045 152.369C32.544 150.125 33.5395 146.139 34.4003 144.499L35.0675 144.653C34.0545 146.18 33.1535 150.044 33.3286 152.211C33.3032 152.331 32.9494 152.383 32.5143 152.368L32.5045 152.369Z" fill="url(#paint65_radial_433_89514)"/>
<path style="mix-blend-mode:multiply" fill-rule="evenodd" clip-rule="evenodd" d="M30.268 143.548C30.3234 145.403 29.4786 149.463 28.5229 151.492C28.0118 151.282 27.6381 151.049 27.6731 150.919C28.7823 149.043 29.6538 145.18 29.4119 143.361L30.2584 143.558L30.268 143.548Z" fill="url(#paint66_radial_433_89514)"/>
<path style="mix-blend-mode:screen" fill-rule="evenodd" clip-rule="evenodd" d="M33.8728 144.379C32.8295 146.727 32.3136 149.185 32.0196 152.336C31.5835 152.292 31.0667 152.202 30.5192 152.083C30.9187 149.402 31.4848 146.685 32.2799 144.02L33.8732 144.389L33.8728 144.379Z" fill="url(#paint67_radial_433_89514)"/>
<path fill-rule="evenodd" clip-rule="evenodd" d="M36.8065 137.095L31.1603 135.793C31.4022 137.612 30.5209 141.475 29.4214 143.351C29.3618 143.62 30.5749 144.13 32.1283 144.49C33.6917 144.85 34.998 144.923 35.0676 144.653C34.8922 142.477 35.8034 138.622 36.8065 137.095V137.095Z" fill="url(#paint68_linear_433_89514)"/>
<path style="mix-blend-mode:multiply" fill-rule="evenodd" clip-rule="evenodd" d="M34.2436 144.81C34.2831 142.567 35.2786 138.581 36.1394 136.941L36.8066 137.095C35.7936 138.622 34.8926 142.486 35.0677 144.653C35.0422 144.772 34.6885 144.824 34.2436 144.81V144.81Z" fill="url(#paint69_radial_433_89514)"/>
<path style="mix-blend-mode:multiply" fill-rule="evenodd" clip-rule="evenodd" d="M32.0167 135.99C32.0722 137.845 31.2274 141.904 30.2717 143.933C29.7606 143.724 29.3869 143.49 29.4218 143.36C30.5311 141.484 31.4025 137.621 31.1607 135.803L32.0072 136L32.0167 135.99Z" fill="url(#paint70_radial_433_89514)"/>
<path style="mix-blend-mode:screen" fill-rule="evenodd" clip-rule="evenodd" d="M35.5067 137.21C34.4634 139.558 33.9928 141.619 33.7083 144.76C33.2721 144.716 32.6955 144.608 32.1477 144.479C32.5471 141.798 33.2109 139.612 34.006 136.947L35.5064 137.2L35.5067 137.21Z" fill="url(#paint71_radial_433_89514)"/>
<path fill-rule="evenodd" clip-rule="evenodd" d="M38.915 128.813L32.8905 127.425C33.1323 129.244 32.3127 133.737 31.1604 135.793C31.1007 136.061 32.3138 136.572 33.8673 136.932C35.4307 137.292 36.737 137.364 36.8065 137.095C36.6745 134.749 37.9024 130.35 38.915 128.813V128.813Z" fill="url(#paint72_linear_433_89514)"/>
<path style="mix-blend-mode:multiply" fill-rule="evenodd" clip-rule="evenodd" d="M38.1087 128.634L38.9154 128.823C37.9024 130.35 36.6749 134.759 36.8069 137.105L36.7695 137.165C36.6257 137.289 36.161 137.276 35.9828 137.262C36.0981 134.927 37.0461 130.716 38.0992 128.644L38.1087 128.634Z" fill="url(#paint73_radial_433_89514)"/>
<path style="mix-blend-mode:multiply" fill-rule="evenodd" clip-rule="evenodd" d="M33.8963 127.656C33.9353 129.887 32.9055 134.299 32.0103 136.365C31.8102 136.293 31.2586 136.056 31.1724 135.851L31.17 135.782C32.3128 133.737 33.1321 129.234 32.8902 127.415L33.8959 127.646L33.8963 127.656Z" fill="url(#paint74_radial_433_89514)"/>
<path style="mix-blend-mode:screen" fill-rule="evenodd" clip-rule="evenodd" d="M37.5308 128.497C36.4875 130.845 35.801 134.069 35.5067 137.21C35.0705 137.166 34.5537 137.076 34.0063 136.957C34.4057 134.276 35.1523 130.793 35.9473 128.128L37.5406 128.496L37.5308 128.497Z" fill="url(#paint75_radial_433_89514)"/>
<path fill-rule="evenodd" clip-rule="evenodd" d="M40.307 123.747C39.2316 123.498 38.1561 123.25 37.0806 123.001C36.0051 122.752 34.9297 122.504 33.8542 122.255C33.6666 123.378 33.0683 126.303 32.8902 127.415C32.8665 127.584 33.1708 127.811 33.6928 128.049C34.2144 128.277 34.9439 128.518 35.7605 128.707C36.577 128.896 37.3415 129.007 37.915 129.026C38.4886 129.046 38.8614 128.973 38.915 128.813C39.2421 127.725 39.9799 124.835 40.307 123.747V123.747Z" fill="url(#paint76_linear_433_89514)"/>
<path style="mix-blend-mode:multiply" opacity="0.5" fill-rule="evenodd" clip-rule="evenodd" d="M38.3449 128.892C38.6798 127.745 39.4247 124.775 39.7497 123.628C39.9389 123.671 40.1182 123.714 40.3074 123.756C39.9802 124.844 39.2425 127.735 38.9153 128.823C38.8705 128.953 38.6165 129.031 38.2117 129.035C38.2793 128.993 38.3273 128.952 38.3449 128.892V128.892Z" fill="url(#paint77_linear_433_89514)"/>
<path style="mix-blend-mode:multiply" opacity="0.5" fill-rule="evenodd" clip-rule="evenodd" d="M35.159 122.565C34.9337 123.738 34.2881 126.724 34.073 127.907C34.0476 128.026 34.1617 128.18 34.3642 128.321C33.914 128.159 33.5329 127.995 33.2807 127.846C33.0183 127.687 32.875 127.544 32.9008 127.435C33.0887 126.322 33.6867 123.387 33.8648 122.274C34.303 122.378 34.731 122.471 35.1692 122.574L35.159 122.565Z" fill="url(#paint78_linear_433_89514)"/>
<path style="mix-blend-mode:screen" opacity="0.5" fill-rule="evenodd" clip-rule="evenodd" d="M39.2516 123.507C38.91 124.744 38.1482 127.793 37.8065 129.03C37.5691 129.018 37.3112 128.988 37.0237 128.959C36.7359 128.919 36.4379 128.871 36.1194 128.803C36.4294 127.508 37.1595 124.401 37.4596 123.106C37.7584 123.174 38.0571 123.243 38.3558 123.311C38.6545 123.38 38.9533 123.448 39.252 123.517L39.2516 123.507Z" fill="url(#paint79_radial_433_89514)"/>
<path style="mix-blend-mode:screen" opacity="0.5" fill-rule="evenodd" clip-rule="evenodd" d="M36.9611 122.976C36.6614 124.28 35.951 127.387 35.6512 128.691C35.3624 128.622 35.0932 128.553 34.8336 128.473C35.1041 127.18 35.7948 124.074 36.0653 122.78C36.364 122.849 36.6627 122.917 36.9615 122.986L36.9611 122.976Z" fill="url(#paint80_radial_433_89514)"/>
<path fill-rule="evenodd" clip-rule="evenodd" d="M40.594 107.775L45.3981 115.458L42.3708 114.755L39.9006 110.802L40.594 107.775Z" fill="url(#paint81_radial_433_89514)"/>
<path fill-rule="evenodd" clip-rule="evenodd" d="M32.9108 112.58L40.5939 107.775L39.9005 110.802L35.9478 113.273L32.9108 112.58Z" fill="url(#paint82_radial_433_89514)"/>
<path fill-rule="evenodd" clip-rule="evenodd" d="M38.418 117.225L42.3707 114.755L45.398 115.458L37.715 120.262L38.418 117.225Z" fill="url(#paint83_radial_433_89514)"/>
<path fill-rule="evenodd" clip-rule="evenodd" d="M37.715 120.262L45.3981 115.458L48.4353 116.161L61.9085 119.272C61.5961 120.498 60.1763 121.97 59.7604 122.222C58.8107 121.337 55.9791 120.024 53.868 119.535L47.9231 118.164C46.6187 117.865 45.3813 118.066 44.2507 118.778L43.1586 119.458C41.6509 120.4 41.2452 120.938 40.6826 122.913L40.3748 123.991L36.8913 123.798L37.0022 123.3L37.7052 120.263L37.715 120.262Z" fill="url(#paint84_radial_433_89514)"/>
<path fill-rule="evenodd" clip-rule="evenodd" d="M32.9109 112.579L37.7151 120.262L37.0121 123.3L36.9012 123.797L33.6832 122.449L33.8814 121.346C34.2446 119.318 34.1128 118.661 33.1708 117.153L29.8737 111.876L32.9109 112.579V112.579Z" fill="#5A5A5A"/>
<path fill-rule="evenodd" clip-rule="evenodd" d="M37.7151 120.262L32.911 112.579L35.9479 113.272L38.418 117.225L37.7151 120.262Z" fill="url(#paint85_radial_433_89514)"/>
<path style="mix-blend-mode:screen" opacity="0.5" fill-rule="evenodd" clip-rule="evenodd" d="M35.1813 113.102C34.2063 113.462 34.5441 114.922 35.2461 116.063C35.6129 116.662 36.0093 117.261 36.5107 117.757C37.3294 118.567 37.9545 118.368 38.2725 117.862L37.7249 120.262L32.9208 112.579L35.1912 113.102L35.1813 113.102Z" fill="url(#paint86_radial_433_89514)"/>
<path fill-rule="evenodd" clip-rule="evenodd" d="M54.8027 115.502C56.9138 115.991 60.037 116.049 61.278 115.67C61.5392 116.075 62.171 118.028 61.9181 119.262L48.4449 116.151L45.4077 115.448L40.6036 107.765L41.3065 104.728L45.828 111.957C46.5398 113.097 47.553 113.822 48.8673 114.121L54.8122 115.492L54.8027 115.502Z" fill="url(#paint87_radial_433_89514)"/>
<path fill-rule="evenodd" clip-rule="evenodd" d="M37.715 120.262L32.9109 112.579L29.8737 111.876L16.4005 108.765C16.1378 109.999 16.7692 111.943 17.0406 112.358C18.2816 111.978 21.4048 112.036 23.5159 112.525L29.4608 113.896C30.7652 114.196 31.7883 114.92 32.5001 116.06L33.1806 117.153C34.1226 118.66 34.2544 119.317 33.8912 121.345L33.693 122.448L36.9111 123.797L37.0219 123.299L37.7249 120.262L37.715 120.262Z" fill="url(#paint88_radial_433_89514)"/>
<path fill-rule="evenodd" clip-rule="evenodd" d="M24.4409 108.502C22.3298 108.013 19.4982 106.701 18.5485 105.816C18.1327 106.067 16.7128 107.54 16.4004 108.765L29.8736 111.876L32.9108 112.579L40.5939 107.775L41.2969 104.738L34.0681 109.259C32.9276 109.971 31.7001 110.172 30.3957 109.873L24.4508 108.502L24.4409 108.502Z" fill="url(#paint89_radial_433_89514)"/>
<path style="mix-blend-mode:screen" fill-rule="evenodd" clip-rule="evenodd" d="M46.2267 113.464C43.894 112.291 42.3234 108.643 42.0503 105.936L45.8184 111.967C46.5302 113.107 47.5435 113.832 48.8578 114.131L54.8026 115.502C55.7883 115.724 56.9882 115.86 58.1155 115.899C57.0733 116.035 56.0457 116.022 54.7909 115.73L49.6724 114.547C48.2084 114.204 47.0706 113.868 46.2362 113.453L46.2267 113.464Z" fill="url(#paint90_radial_433_89514)"/>
<path style="mix-blend-mode:multiply" opacity="0.5" fill-rule="evenodd" clip-rule="evenodd" d="M33.0426 110.431C35.649 110.399 38.6689 107.804 40.0888 105.492L34.0582 109.26C32.9178 109.972 31.6903 110.173 30.3858 109.873L24.441 108.502C23.4553 108.28 22.325 107.875 21.2915 107.418C22.1713 107.999 23.0952 108.431 24.3598 108.722L29.4783 109.905C30.9423 110.249 32.1147 110.444 33.0426 110.431V110.431Z" fill="url(#paint91_radial_433_89514)"/>
<path style="mix-blend-mode:multiply" opacity="0.75" fill-rule="evenodd" clip-rule="evenodd" d="M58.75 120.173C60.0861 120.531 61.0191 120.38 61.6556 119.943C61.1291 120.979 60.1185 122.012 59.7699 122.212C58.8202 121.327 55.9887 120.014 53.8775 119.525L47.9327 118.154C46.6282 117.855 45.3908 118.056 44.2602 118.768L43.7383 119.092C44.3054 118.647 44.9616 118.209 45.6326 117.909C46.294 117.619 46.9701 117.467 47.6162 117.583C51.654 118.369 54.8307 119.106 58.7496 120.164L58.75 120.173Z" fill="url(#paint92_radial_433_89514)"/>
<path style="mix-blend-mode:multiply" fill-rule="evenodd" clip-rule="evenodd" d="M35.5114 121.357C35.4431 121.943 35.365 122.528 35.297 123.123L33.693 122.449L33.8912 121.345C34.2543 119.318 34.1226 118.66 33.1805 117.153L32.5001 116.061C31.7883 114.92 30.775 114.195 29.4607 113.896L23.5159 112.525C21.4149 112.046 18.321 111.977 17.0698 112.347C19.4154 111.642 21.9647 111.671 24.3521 112.15C25.2771 112.335 26.2022 112.519 27.1371 112.704C28.0728 112.908 28.9985 113.112 29.9342 113.316C31.6761 113.699 32.1763 113.879 33.3169 115.696L34.5729 117.706C35.5878 119.32 35.7678 119.383 35.5213 121.357L35.5114 121.357Z" fill="url(#paint93_radial_433_89514)"/>
<path style="mix-blend-mode:screen" fill-rule="evenodd" clip-rule="evenodd" d="M35.346 109.362C34.2409 114.162 37.2345 118.956 42.0342 120.061C46.8338 121.166 51.6274 118.172 52.7325 113.373C53.8376 108.573 50.844 103.779 46.0443 102.674C41.2447 101.569 36.4511 104.563 35.346 109.362V109.362Z" fill="url(#paint94_radial_433_89514)"/>
<defs>
<linearGradient id="paint0_linear_433_89514" x1="48.1868" y1="146.834" x2="48.1824" y2="32.4868" gradientUnits="userSpaceOnUse">
<stop stop-color="#2F5078"/>
<stop offset="1" stop-color="#456A97"/>
</linearGradient>
<radialGradient id="paint1_radial_433_89514" cx="0" cy="0" r="1" gradientUnits="userSpaceOnUse" gradientTransform="translate(123.377 84.7284) rotate(-30) scale(98.59)">
<stop stop-color="#ADCAEB"/>
<stop offset="1" stop-color="#527499"/>
</radialGradient>
<radialGradient id="paint2_radial_433_89514" cx="0" cy="0" r="1" gradientUnits="userSpaceOnUse" gradientTransform="translate(-61.1923 46.4442) rotate(-30) scale(157.53)">
<stop stop-color="#DCFBFF"/>
<stop offset="1" stop-color="#6084AB"/>
</radialGradient>
<linearGradient id="paint3_linear_433_89514" x1="7.04733" y1="87.6787" x2="45.4873" y2="87.6787" gradientUnits="userSpaceOnUse">
<stop stop-color="#60812F"/>
<stop offset="1" stop-color="#B3ED5C"/>
</linearGradient>
<linearGradient id="paint4_linear_433_89514" x1="45.6622" y1="87.6816" x2="84.2721" y2="87.6759" gradientUnits="userSpaceOnUse">
<stop stop-color="#A80000"/>
<stop offset="1" stop-color="#D43500"/>
</linearGradient>
<radialGradient id="paint5_radial_433_89514" cx="0" cy="0" r="1" gradientUnits="userSpaceOnUse" gradientTransform="translate(39.9167 61.7502) rotate(-30) scale(31.22)">
<stop stop-color="white"/>
<stop offset="0.11" stop-color="#F9FAFB"/>
<stop offset="0.26" stop-color="#E9ECF0"/>
<stop offset="0.42" stop-color="#CED5DE"/>
<stop offset="0.6" stop-color="#A9B5C6"/>
<stop offset="0.79" stop-color="#7A8CA6"/>
<stop offset="0.98" stop-color="#405B80"/>
<stop offset="1" stop-color="#3C577D"/>
</radialGradient>
<radialGradient id="paint6_radial_433_89514" cx="0" cy="0" r="1" gradientUnits="userSpaceOnUse" gradientTransform="translate(51.0997 59.2197) rotate(-30) scale(28.68)">
<stop stop-color="white"/>
<stop offset="0.11" stop-color="#FBF9F9"/>
<stop offset="0.26" stop-color="#F0E9E9"/>
<stop offset="0.42" stop-color="#DECECE"/>
<stop offset="0.6" stop-color="#C6A9AA"/>
<stop offset="0.79" stop-color="#A67A7A"/>
<stop offset="0.98" stop-color="#804041"/>
<stop offset="1" stop-color="#7D3C3D"/>
</radialGradient>
<radialGradient id="paint7_radial_433_89514" cx="0" cy="0" r="1" gradientUnits="userSpaceOnUse" gradientTransform="translate(42.2084 119.859) rotate(-30) scale(22.12)">
<stop stop-color="white"/>
<stop offset="0.11" stop-color="#F9FAFB"/>
<stop offset="0.26" stop-color="#E9ECF0"/>
<stop offset="0.42" stop-color="#CED5DE"/>
<stop offset="0.6" stop-color="#A9B5C6"/>
<stop offset="0.79" stop-color="#7A8CA6"/>
<stop offset="0.98" stop-color="#405B80"/>
<stop offset="1" stop-color="#3C577D"/>
</radialGradient>
<radialGradient id="paint8_radial_433_89514" cx="0" cy="0" r="1" gradientUnits="userSpaceOnUse" gradientTransform="translate(46.4016 118.062) rotate(-30) scale(27.6)">
<stop stop-color="white"/>
<stop offset="0.11" stop-color="#FBF9F9"/>
<stop offset="0.26" stop-color="#F0E9E9"/>
<stop offset="0.42" stop-color="#DECECE"/>
<stop offset="0.6" stop-color="#C6A9AA"/>
<stop offset="0.79" stop-color="#A67A7A"/>
<stop offset="0.98" stop-color="#804041"/>
<stop offset="1" stop-color="#7D3C3D"/>
</radialGradient>
<radialGradient id="paint9_radial_433_89514" cx="0" cy="0" r="1" gradientUnits="userSpaceOnUse" gradientTransform="translate(28.3723 110.135) rotate(-30) scale(20.88)">
<stop stop-color="white"/>
<stop offset="0.11" stop-color="#F9FAFB"/>
<stop offset="0.26" stop-color="#E9ECF0"/>
<stop offset="0.42" stop-color="#CED5DE"/>
<stop offset="0.6" stop-color="#A9B5C6"/>
<stop offset="0.79" stop-color="#7A8CA6"/>
<stop offset="0.98" stop-color="#405B80"/>
<stop offset="1" stop-color="#3C577D"/>
</radialGradient>
<radialGradient id="paint10_radial_433_89514" cx="0" cy="0" r="1" gradientUnits="userSpaceOnUse" gradientTransform="translate(60.0906 104.512) rotate(-30) scale(31.08)">
<stop stop-color="white"/>
<stop offset="0.11" stop-color="#FBF9F9"/>
<stop offset="0.26" stop-color="#F0E9E9"/>
<stop offset="0.42" stop-color="#DECECE"/>
<stop offset="0.6" stop-color="#C6A9AA"/>
<stop offset="0.79" stop-color="#A67A7A"/>
<stop offset="0.98" stop-color="#804041"/>
<stop offset="1" stop-color="#7D3C3D"/>
</radialGradient>
<radialGradient id="paint11_radial_433_89514" cx="0" cy="0" r="1" gradientUnits="userSpaceOnUse" gradientTransform="translate(97.1592 59.4971) rotate(-30) scale(67.11)">
<stop stop-color="#7D3C3D"/>
<stop offset="0.02" stop-color="#804041"/>
<stop offset="0.21" stop-color="#A67A7A"/>
<stop offset="0.4" stop-color="#C6A9AA"/>
<stop offset="0.58" stop-color="#DECECE"/>
<stop offset="0.74" stop-color="#F0E9E9"/>
<stop offset="0.89" stop-color="#FBF9F9"/>
<stop offset="1" stop-color="white"/>
</radialGradient>
<radialGradient id="paint12_radial_433_89514" cx="0" cy="0" r="1" gradientUnits="userSpaceOnUse" gradientTransform="translate(6.70119 57.5792) rotate(-30) scale(39.12)">
<stop stop-color="#3C577D"/>
<stop offset="0.02" stop-color="#405B80"/>
<stop offset="0.21" stop-color="#7A8CA6"/>
<stop offset="0.4" stop-color="#A9B5C6"/>
<stop offset="0.58" stop-color="#CED5DE"/>
<stop offset="0.74" stop-color="#E9ECF0"/>
<stop offset="0.89" stop-color="#F9FAFB"/>
<stop offset="1" stop-color="white"/>
</radialGradient>
<radialGradient id="paint13_radial_433_89514" cx="0" cy="0" r="1" gradientUnits="userSpaceOnUse" gradientTransform="translate(80.6982 78.6657) rotate(-30) scale(78.2)">
<stop stop-color="#2E8FFF"/>
<stop offset="0.11" stop-color="#2D8CFA"/>
<stop offset="0.23" stop-color="#2A84EC"/>
<stop offset="0.36" stop-color="#2678D6"/>
<stop offset="0.5" stop-color="#2066B6"/>
<stop offset="0.64" stop-color="#194F8E"/>
<stop offset="0.78" stop-color="#10335C"/>
<stop offset="0.92" stop-color="#061322"/>
<stop offset="1"/>
</radialGradient>
<radialGradient id="paint14_radial_433_89514" cx="0" cy="0" r="1" gradientUnits="userSpaceOnUse" gradientTransform="translate(86.5204 81.9901) rotate(-30) scale(58.03)">
<stop stop-color="#D44660"/>
<stop offset="1"/>
</radialGradient>
<radialGradient id="paint15_radial_433_89514" cx="0" cy="0" r="1" gradientUnits="userSpaceOnUse" gradientTransform="translate(62.9664 88.2334) rotate(-30) scale(57.43)">
<stop stop-color="#2E8FFF"/>
<stop offset="0.11" stop-color="#2D8CFA"/>
<stop offset="0.23" stop-color="#2A84EC"/>
<stop offset="0.36" stop-color="#2678D6"/>
<stop offset="0.5" stop-color="#2066B6"/>
<stop offset="0.64" stop-color="#194F8E"/>
<stop offset="0.78" stop-color="#10335C"/>
<stop offset="0.92" stop-color="#061322"/>
<stop offset="1"/>
</radialGradient>
<radialGradient id="paint16_radial_433_89514" cx="0" cy="0" r="1" gradientUnits="userSpaceOnUse" gradientTransform="translate(103.184 86.133) rotate(-30) scale(47.25)">
<stop stop-color="#D44660"/>
<stop offset="1"/>
</radialGradient>
<linearGradient id="paint17_linear_433_89514" x1="-3.03939" y1="88.768" x2="45.2131" y2="116.624" gradientUnits="userSpaceOnUse">
<stop stop-color="#5C86B8"/>
<stop offset="1" stop-color="#2F5078"/>
</linearGradient>
<linearGradient id="paint18_linear_433_89514" x1="14.5433" y1="72.4621" x2="14.5394" y2="47.9154" gradientUnits="userSpaceOnUse">
<stop stop-color="#2F5078"/>
<stop offset="1" stop-color="#456A97"/>
</linearGradient>
<linearGradient id="paint19_linear_433_89514" x1="25.3551" y1="58.4487" x2="63.7893" y2="36.2587" gradientUnits="userSpaceOnUse">
<stop stop-color="#73A2D9"/>
<stop offset="1" stop-color="#2F5078"/>
</linearGradient>
<radialGradient id="paint20_radial_433_89514" cx="0" cy="0" r="1" gradientUnits="userSpaceOnUse" gradientTransform="translate(0.666645 36.0871) rotate(-30) scale(33.97)">
<stop stop-color="#F0FFFF"/>
<stop offset="0.11" stop-color="#EBFAFA"/>
<stop offset="0.24" stop-color="#DEECEE"/>
<stop offset="0.37" stop-color="#C8D6DA"/>
<stop offset="0.51" stop-color="#AAB6BE"/>
<stop offset="0.65" stop-color="#838E99"/>
<stop offset="0.79" stop-color="#535C6D"/>
<stop offset="0.93" stop-color="#1C2239"/>
<stop offset="1" stop-color="#00051F"/>
</radialGradient>
<radialGradient id="paint21_radial_433_89514" cx="0" cy="0" r="1" gradientUnits="userSpaceOnUse" gradientTransform="translate(-23.4693 80.7023) rotate(-30) scale(58.51)">
<stop stop-color="#F0FFFF"/>
<stop offset="0.11" stop-color="#EBFAFA"/>
<stop offset="0.24" stop-color="#DEECEE"/>
<stop offset="0.37" stop-color="#C8D6DA"/>
<stop offset="0.51" stop-color="#AAB6BE"/>
<stop offset="0.65" stop-color="#838E99"/>
<stop offset="0.79" stop-color="#535C6D"/>
<stop offset="0.93" stop-color="#1C2239"/>
<stop offset="1" stop-color="#00051F"/>
</radialGradient>
<radialGradient id="paint22_radial_433_89514" cx="0" cy="0" r="1" gradientUnits="userSpaceOnUse" gradientTransform="translate(-10.7688 100.02) rotate(-30) scale(38.58)">
<stop offset="0.51" stop-color="#F0FFFF"/>
<stop offset="0.77" stop-color="#B4D0EF"/>
<stop offset="1" stop-color="#7BA4E1"/>
</radialGradient>
<radialGradient id="paint23_radial_433_89514" cx="0" cy="0" r="1" gradientUnits="userSpaceOnUse" gradientTransform="translate(58.9473 31.8721) rotate(-30) scale(26.06)">
<stop stop-color="#F0FFFF"/>
<stop offset="0.11" stop-color="#EBFAFA"/>
<stop offset="0.24" stop-color="#DEECEE"/>
<stop offset="0.37" stop-color="#C8D6DA"/>
<stop offset="0.51" stop-color="#AAB6BE"/>
<stop offset="0.65" stop-color="#838E99"/>
<stop offset="0.79" stop-color="#535C6D"/>
<stop offset="0.93" stop-color="#1C2239"/>
<stop offset="1" stop-color="#00051F"/>
</radialGradient>
<radialGradient id="paint24_radial_433_89514" cx="0" cy="0" r="1" gradientUnits="userSpaceOnUse" gradientTransform="translate(64.7508 130.724) rotate(-30) scale(38.17)">
<stop stop-color="#F0FFFF"/>
<stop offset="0.11" stop-color="#EBFAFA"/>
<stop offset="0.24" stop-color="#DEECEE"/>
<stop offset="0.37" stop-color="#C8D6DA"/>
<stop offset="0.51" stop-color="#AAB6BE"/>
<stop offset="0.65" stop-color="#838E99"/>
<stop offset="0.79" stop-color="#535C6D"/>
<stop offset="0.93" stop-color="#1C2239"/>
<stop offset="1" stop-color="#00051F"/>
</radialGradient>
<radialGradient id="paint25_radial_433_89514" cx="0" cy="0" r="1" gradientUnits="userSpaceOnUse" gradientTransform="translate(2.78957 54.0641) rotate(-30) scale(20.11)">
<stop offset="0.51" stop-color="#F0FFFF"/>
<stop offset="0.77" stop-color="#B4D0EF"/>
<stop offset="1" stop-color="#7BA4E1"/>
</radialGradient>
<radialGradient id="paint26_radial_433_89514" cx="0" cy="0" r="1" gradientUnits="userSpaceOnUse" gradientTransform="translate(29.7944 16.1178) rotate(-30) scale(36.63)">
<stop offset="0.51" stop-color="#F0FFFF"/>
<stop offset="0.77" stop-color="#B4D0EF"/>
<stop offset="1" stop-color="#7BA4E1"/>
</radialGradient>
<radialGradient id="paint27_radial_433_89514" cx="0" cy="0" r="1" gradientUnits="userSpaceOnUse" gradientTransform="translate(63.6736 27.5383) rotate(-30) scale(21.18)">
<stop offset="0.51" stop-color="#F0FFFF"/>
<stop offset="0.77" stop-color="#B4D0EF"/>
<stop offset="1" stop-color="#7BA4E1"/>
</radialGradient>
<radialGradient id="paint28_radial_433_89514" cx="0" cy="0" r="1" gradientUnits="userSpaceOnUse" gradientTransform="translate(99.2833 57.1161) rotate(-30.0001) scale(24.78)">
<stop offset="0.51" stop-color="#F0FFFF"/>
<stop offset="0.77" stop-color="#B4D0EF"/>
<stop offset="1" stop-color="#7BA4E1"/>
</radialGradient>
<radialGradient id="paint29_radial_433_89514" cx="0" cy="0" r="1" gradientUnits="userSpaceOnUse" gradientTransform="translate(27.2447 83.3616) rotate(-30) scale(70.37)">
<stop offset="0.51" stop-color="#F0FFFF"/>
<stop offset="0.77" stop-color="#B4D0EF"/>
<stop offset="1" stop-color="#7BA4E1"/>
</radialGradient>
<radialGradient id="paint30_radial_433_89514" cx="0" cy="0" r="1" gradientUnits="userSpaceOnUse" gradientTransform="translate(32.7595 160.96) rotate(-167.017) scale(15.6622 8.1589)">
<stop stop-color="#DB8FE6"/>
<stop offset="1" stop-color="#6F05BD"/>
</radialGradient>
<radialGradient id="paint31_radial_433_89514" cx="0" cy="0" r="1" gradientUnits="userSpaceOnUse" gradientTransform="translate(33.5448 163.694) rotate(-167.017) scale(9.95333 5.18499)">
<stop stop-color="#E8C0E6"/>
<stop offset="1" stop-color="#BF7DE6"/>
</radialGradient>
<radialGradient id="paint32_radial_433_89514" cx="0" cy="0" r="1" gradientUnits="userSpaceOnUse" gradientTransform="translate(47.46 162.001) rotate(-167.017) scale(15.5561 8.10362)">
<stop stop-color="#E8C0E6"/>
<stop offset="1" stop-color="#A950E6"/>
</radialGradient>
<radialGradient id="paint33_radial_433_89514" cx="0" cy="0" r="1" gradientUnits="userSpaceOnUse" gradientTransform="translate(31.3971 165.263) rotate(-167.017) scale(14.7072 7.66141)">
<stop stop-color="#DB8FE6"/>
<stop offset="1" stop-color="#831ACF"/>
</radialGradient>
<radialGradient id="paint34_radial_433_89514" cx="0" cy="0" r="1" gradientUnits="userSpaceOnUse" gradientTransform="translate(29.9902 159.368) rotate(-167.017) scale(10.9296 5.69354)">
<stop stop-color="#DB8FE6"/>
<stop offset="1" stop-color="#831ACF"/>
</radialGradient>
<radialGradient id="paint35_radial_433_89514" cx="0" cy="0" r="1" gradientUnits="userSpaceOnUse" gradientTransform="translate(34.3631 154.761) rotate(-167.017) scale(14.9194 7.77196)">
<stop stop-color="#D07BE6"/>
<stop offset="1" stop-color="#A64AE6"/>
</radialGradient>
<radialGradient id="paint36_radial_433_89514" cx="0" cy="0" r="1" gradientUnits="userSpaceOnUse" gradientTransform="translate(38.3653 158.939) rotate(-167.017) scale(9.95338 5.18499)">
<stop stop-color="#DF9FE6"/>
<stop offset="1" stop-color="#AE5AE6"/>
</radialGradient>
<radialGradient id="paint37_radial_433_89514" cx="0" cy="0" r="1" gradientUnits="userSpaceOnUse" gradientTransform="translate(39.2687 158.422) rotate(-167.017) scale(12.9881 6.76592)">
<stop stop-color="#DB8FE6"/>
<stop offset="1" stop-color="#831ACF"/>
</radialGradient>
<radialGradient id="paint38_radial_433_89514" cx="0" cy="0" r="1" gradientUnits="userSpaceOnUse" gradientTransform="translate(43.1141 160.352) rotate(-167.017) scale(18.0603 9.40816)">
<stop stop-color="#DF9FE6"/>
<stop offset="1" stop-color="#A240E6"/>
</radialGradient>
<radialGradient id="paint39_radial_433_89514" cx="0" cy="0" r="1" gradientUnits="userSpaceOnUse" gradientTransform="translate(26.4959 151.665) rotate(-167.017) scale(5.58151 2.90758)">
<stop stop-color="#DB8FE6"/>
<stop offset="1" stop-color="#831ACF"/>
</radialGradient>
<radialGradient id="paint40_radial_433_89514" cx="0" cy="0" r="1" gradientUnits="userSpaceOnUse" gradientTransform="translate(30.8939 154.222) rotate(-167.017) scale(5.41168 2.81913)">
<stop offset="0.35" stop-color="#DB8FE6"/>
<stop offset="1" stop-color="#831ACF"/>
</radialGradient>
<radialGradient id="paint41_radial_433_89514" cx="0" cy="0" r="1" gradientUnits="userSpaceOnUse" gradientTransform="translate(33.1891 155.318) rotate(-167.017) scale(6.30304 3.28346)">
<stop stop-color="#DB8FE6"/>
<stop offset="1" stop-color="#831ACF"/>
</radialGradient>
<radialGradient id="paint42_radial_433_89514" cx="0" cy="0" r="1" gradientUnits="userSpaceOnUse" gradientTransform="translate(36.1971 158.235) rotate(-167.017) scale(7.85232 4.09051)">
<stop stop-color="#C94AE6"/>
<stop offset="1"/>
</radialGradient>
<radialGradient id="paint43_radial_433_89514" cx="0" cy="0" r="1" gradientUnits="userSpaceOnUse" gradientTransform="translate(33.125 156.824) rotate(-167.017) scale(11.4176 5.94782)">
<stop stop-color="#F2E6E6"/>
<stop offset="1" stop-color="#A661AE"/>
</radialGradient>
<radialGradient id="paint44_radial_433_89514" cx="0" cy="0" r="1" gradientUnits="userSpaceOnUse" gradientTransform="translate(27.5035 150.978) rotate(-167.017) scale(9.12562 4.75383)">
<stop stop-color="#DB8FE6"/>
<stop offset="1" stop-color="#831ACF"/>
</radialGradient>
<radialGradient id="paint45_radial_433_89514" cx="0" cy="0" r="1" gradientUnits="userSpaceOnUse" gradientTransform="translate(35.9716 157.798) rotate(-167.017) scale(8.27676 4.31161)">
<stop stop-color="#F2E6E6"/>
<stop offset="1" stop-color="#A661AE"/>
</radialGradient>
<radialGradient id="paint46_radial_433_89514" cx="0" cy="0" r="1" gradientUnits="userSpaceOnUse" gradientTransform="translate(32.5629 155.389) rotate(-167.017) scale(8.46775 4.41111)">
<stop stop-color="#DB8DE6"/>
<stop offset="1"/>
</radialGradient>
<radialGradient id="paint47_radial_433_89514" cx="0" cy="0" r="1" gradientUnits="userSpaceOnUse" gradientTransform="translate(32.6581 159.132) rotate(-167.017) scale(17.3388 9.03228)">
<stop stop-color="#DB8DE6"/>
<stop offset="1"/>
</radialGradient>
<radialGradient id="paint48_radial_433_89514" cx="0" cy="0" r="1" gradientUnits="userSpaceOnUse" gradientTransform="translate(30.9191 159.968) rotate(-167.017) scale(3.77756 1.96786)">
<stop stop-color="#DB8DE6"/>
<stop offset="1"/>
</radialGradient>
<radialGradient id="paint49_radial_433_89514" cx="0" cy="0" r="1" gradientUnits="userSpaceOnUse" gradientTransform="translate(35.0784 164.127) rotate(-167.017) scale(7.97966 4.15684)">
<stop stop-color="#E8C0E6"/>
<stop offset="1" stop-color="#40194D"/>
</radialGradient>
<radialGradient id="paint50_radial_433_89514" cx="0" cy="0" r="1" gradientUnits="userSpaceOnUse" gradientTransform="translate(28.6406 156.298) rotate(-167.017) scale(3.95824)">
<stop stop-color="#C586CA"/>
<stop offset="0.27" stop-color="#C83EE6"/>
<stop offset="0.32" stop-color="#B337CE"/>
<stop offset="0.48" stop-color="#742486"/>
<stop offset="0.62" stop-color="#42144C"/>
<stop offset="0.74" stop-color="#1E0922"/>
<stop offset="0.84" stop-color="#080209"/>
<stop offset="0.89"/>
</radialGradient>
<radialGradient id="paint51_radial_433_89514" cx="0" cy="0" r="1" gradientUnits="userSpaceOnUse" gradientTransform="translate(32.9299 154.917) rotate(-167.017) scale(1.33258)">
<stop stop-color="#C586CA"/>
<stop offset="0.27" stop-color="#C83EE6"/>
<stop offset="0.32" stop-color="#B337CE"/>
<stop offset="0.48" stop-color="#742486"/>
<stop offset="0.62" stop-color="#42144C"/>
<stop offset="0.74" stop-color="#1E0922"/>
<stop offset="0.84" stop-color="#080209"/>
<stop offset="0.89"/>
</radialGradient>
<radialGradient id="paint52_radial_433_89514" cx="0" cy="0" r="1" gradientUnits="userSpaceOnUse" gradientTransform="translate(85.2469 27.7217) rotate(-167.017) scale(101.276)">
<stop stop-color="#CFE2E8"/>
<stop offset="1" stop-color="#5C839E"/>
</radialGradient>
<radialGradient id="paint53_radial_433_89514" cx="0" cy="0" r="1" gradientUnits="userSpaceOnUse" gradientTransform="translate(20.6031 22.0763) rotate(-167.017) scale(94.8496)">
<stop stop-color="#A1C3E6"/>
<stop offset="1" stop-color="#4E729E"/>
</radialGradient>
<radialGradient id="paint54_radial_433_89514" cx="0" cy="0" r="1" gradientUnits="userSpaceOnUse" gradientTransform="translate(46.1988 116.462) rotate(-167.017) scale(20.7783)">
<stop stop-color="#CFE2E8"/>
<stop offset="1" stop-color="#5C839E"/>
</radialGradient>
<radialGradient id="paint55_radial_433_89514" cx="0" cy="0" r="1" gradientUnits="userSpaceOnUse" gradientTransform="translate(24.879 112.975) rotate(-167.017) scale(26.6909)">
<stop stop-color="#A1C3E6"/>
<stop offset="1" stop-color="#4E729E"/>
</radialGradient>
<linearGradient id="paint56_linear_433_89514" x1="44.7862" y1="111.912" x2="47.9507" y2="98.1866" gradientUnits="userSpaceOnUse">
<stop stop-color="#94B3CC"/>
<stop offset="1" stop-color="#406178"/>
</linearGradient>
<linearGradient id="paint57_linear_433_89514" x1="46.9971" y1="98.5439" x2="69.5018" y2="0.934638" gradientUnits="userSpaceOnUse">
<stop stop-color="#A9C5CF"/>
<stop offset="1" stop-color="#D9F2FA"/>
</linearGradient>
<linearGradient id="paint58_linear_433_89514" x1="35.0138" y1="109.659" x2="38.1783" y2="95.9334" gradientUnits="userSpaceOnUse">
<stop stop-color="#677B82"/>
<stop offset="1" stop-color="#353D5C"/>
</linearGradient>
<linearGradient id="paint59_linear_433_89514" x1="38.8886" y1="96.6746" x2="61.3933" y2="-0.934641" gradientUnits="userSpaceOnUse">
<stop stop-color="#89A7CC"/>
<stop offset="1" stop-color="#A1B9C9"/>
</linearGradient>
<linearGradient id="paint60_linear_433_89514" x1="52.7534" y1="66.1084" x2="47.9152" y2="64.9929" gradientUnits="userSpaceOnUse">
<stop stop-color="#4E577A"/>
<stop offset="1" stop-color="#627DA6"/>
</linearGradient>
<linearGradient id="paint61_linear_433_89514" x1="50.3295" y1="65.5495" x2="47.9152" y2="64.9929" gradientUnits="userSpaceOnUse">
<stop stop-color="#5C839E"/>
<stop offset="1" stop-color="#94B3D4"/>
</linearGradient>
<linearGradient id="paint62_linear_433_89514" x1="33.6152" y1="152.763" x2="27.1803" y2="151.28" gradientUnits="userSpaceOnUse">
<stop stop-color="#424E66"/>
<stop offset="0.34" stop-color="#677B82"/>
<stop offset="1" stop-color="#353D5C"/>
</linearGradient>
<linearGradient id="paint63_linear_433_89514" x1="33.141" y1="153.15" x2="28.5048" y2="152.081" gradientUnits="userSpaceOnUse">
<stop stop-color="white"/>
<stop offset="0.25" stop-color="#C2C2C2"/>
<stop offset="0.83" stop-color="#2C2C2C"/>
<stop offset="1"/>
</linearGradient>
<linearGradient id="paint64_linear_433_89514" x1="34.141" y1="148.681" x2="28.4949" y2="147.379" gradientUnits="userSpaceOnUse">
<stop stop-color="#342B4A"/>
<stop offset="0.33" stop-color="#4E4670"/>
<stop offset="0.54" stop-color="#40385D"/>
<stop offset="0.78" stop-color="#372E51"/>
<stop offset="1" stop-color="#342B4D"/>
</linearGradient>
<radialGradient id="paint65_radial_433_89514" cx="0" cy="0" r="1" gradientUnits="userSpaceOnUse" gradientTransform="translate(39.3422 149.364) rotate(-167.017) scale(8.09413)">
<stop stop-color="white"/>
<stop offset="1" stop-color="#CBC1E3"/>
</radialGradient>
<radialGradient id="paint66_radial_433_89514" cx="0" cy="0" r="1" gradientUnits="userSpaceOnUse" gradientTransform="translate(32.9239 148.38) rotate(-167.017) scale(9.81168)">
<stop stop-color="#CBC1E3"/>
<stop offset="1" stop-color="white"/>
</radialGradient>
<radialGradient id="paint67_radial_433_89514" cx="0" cy="0" r="1" gradientUnits="userSpaceOnUse" gradientTransform="translate(32.8841 148.421) rotate(-167.017) scale(7.28473)">
<stop/>
<stop offset="1" stop-color="#382B54"/>
</radialGradient>
<linearGradient id="paint68_linear_433_89514" x1="35.8841" y1="141.121" x2="30.238" y2="139.819" gradientUnits="userSpaceOnUse">
<stop stop-color="#342B4A"/>
<stop offset="0.33" stop-color="#4E4670"/>
<stop offset="0.54" stop-color="#40385D"/>
<stop offset="0.78" stop-color="#372E51"/>
<stop offset="1" stop-color="#342B4D"/>
</linearGradient>
<radialGradient id="paint69_radial_433_89514" cx="0" cy="0" r="1" gradientUnits="userSpaceOnUse" gradientTransform="translate(39.5524 141.379) rotate(-167.017) scale(6.66285)">
<stop stop-color="white"/>
<stop offset="1" stop-color="#CBC1E3"/>
</radialGradient>
<radialGradient id="paint70_radial_433_89514" cx="0" cy="0" r="1" gradientUnits="userSpaceOnUse" gradientTransform="translate(33.3255 140.267) rotate(-167.017) scale(8.47911)">
<stop stop-color="#CBC1E3"/>
<stop offset="1" stop-color="white"/>
</radialGradient>
<radialGradient id="paint71_radial_433_89514" cx="0" cy="0" r="1" gradientUnits="userSpaceOnUse" gradientTransform="translate(34.5715 141.102) rotate(-167.017) scale(6.041)">
<stop/>
<stop offset="1" stop-color="#382B54"/>
</radialGradient>
<linearGradient id="paint72_linear_433_89514" x1="37.8987" y1="133.218" x2="31.8774" y2="131.829" gradientUnits="userSpaceOnUse">
<stop stop-color="#342B4A"/>
<stop offset="0.33" stop-color="#4E4670"/>
<stop offset="0.54" stop-color="#40385D"/>
<stop offset="0.78" stop-color="#372E51"/>
<stop offset="1" stop-color="#342B4D"/>
</linearGradient>
<radialGradient id="paint73_radial_433_89514" cx="0" cy="0" r="1" gradientUnits="userSpaceOnUse" gradientTransform="translate(43.7009 134.15) rotate(-167.017) scale(9.45634)">
<stop stop-color="white"/>
<stop offset="1" stop-color="#CBC1E3"/>
</radialGradient>
<radialGradient id="paint74_radial_433_89514" cx="0" cy="0" r="1" gradientUnits="userSpaceOnUse" gradientTransform="translate(29.9109 131.264) rotate(-167.017) scale(8.36063)">
<stop stop-color="#CBC1E3"/>
<stop offset="1" stop-color="white"/>
</radialGradient>
<radialGradient id="paint75_radial_433_89514" cx="0" cy="0" r="1" gradientUnits="userSpaceOnUse" gradientTransform="translate(37.1002 133.034) rotate(-167.017) scale(5.59681)">
<stop/>
<stop offset="1" stop-color="#382B54"/>
</radialGradient>
<linearGradient id="paint76_linear_433_89514" x1="39.6471" y1="126.601" x2="33.2027" y2="125.115" gradientUnits="userSpaceOnUse">
<stop stop-color="#424E66"/>
<stop offset="0.34" stop-color="#677B82"/>
<stop offset="1" stop-color="#353D5C"/>
</linearGradient>
<linearGradient id="paint77_linear_433_89514" x1="39.6737" y1="126.485" x2="38.8465" y2="126.295" gradientUnits="userSpaceOnUse">
<stop stop-color="#5A5E6B"/>
<stop offset="0.62" stop-color="#C2C4C9"/>
<stop offset="1" stop-color="white"/>
</linearGradient>
<linearGradient id="paint78_linear_433_89514" x1="35.008" y1="125.501" x2="33.2094" y2="125.086" gradientUnits="userSpaceOnUse">
<stop stop-color="white"/>
<stop offset="0.38" stop-color="#C2C4C9"/>
<stop offset="1" stop-color="#5A5E6B"/>
</linearGradient>
<radialGradient id="paint79_radial_433_89514" cx="0" cy="0" r="1" gradientUnits="userSpaceOnUse" gradientTransform="translate(43.3607 128.024) rotate(-167.017) scale(9.75246)">
<stop stop-color="white"/>
<stop offset="0.25" stop-color="#C2C2C2"/>
<stop offset="0.83" stop-color="#2C2C2C"/>
<stop offset="1"/>
</radialGradient>
<radialGradient id="paint80_radial_433_89514" cx="0" cy="0" r="1" gradientUnits="userSpaceOnUse" gradientTransform="translate(40.5205 128.788) rotate(-167.017) scale(7.72894)">
<stop stop-color="white"/>
<stop offset="0.25" stop-color="#C2C2C2"/>
<stop offset="0.83" stop-color="#2C2C2C"/>
<stop offset="1"/>
</radialGradient>
<radialGradient id="paint81_radial_433_89514" cx="0" cy="0" r="1" gradientUnits="userSpaceOnUse" gradientTransform="translate(49.8856 106.271) rotate(-167.017) scale(11.6477)">
<stop stop-color="#677B82"/>
<stop offset="1" stop-color="#353D5C"/>
</radialGradient>
<radialGradient id="paint82_radial_433_89514" cx="0" cy="0" r="1" gradientUnits="userSpaceOnUse" gradientTransform="translate(32.7121 110.81) rotate(-167.017) scale(10.0881)">
<stop stop-color="#677B82"/>
<stop offset="1" stop-color="#353D5C"/>
</radialGradient>
<radialGradient id="paint83_radial_433_89514" cx="0" cy="0" r="1" gradientUnits="userSpaceOnUse" gradientTransform="translate(43.7218 121.361) rotate(-167.017) scale(9.41684)">
<stop stop-color="#677B82"/>
<stop offset="1" stop-color="#353D5C"/>
</radialGradient>
<radialGradient id="paint84_radial_433_89514" cx="0" cy="0" r="1" gradientUnits="userSpaceOnUse" gradientTransform="translate(40.5734 115.773) rotate(-167.017) scale(22.3872)">
<stop stop-color="#677B82"/>
<stop offset="1" stop-color="#353D5C"/>
</radialGradient>
<radialGradient id="paint85_radial_433_89514" cx="0" cy="0" r="1" gradientUnits="userSpaceOnUse" gradientTransform="translate(28.819 121.238) rotate(-167.017) scale(11.2726)">
<stop stop-color="#CFE2E8"/>
<stop offset="1" stop-color="#5C839E"/>
</radialGradient>
<radialGradient id="paint86_radial_433_89514" cx="0" cy="0" r="1" gradientUnits="userSpaceOnUse" gradientTransform="translate(40.3243 113.031) rotate(-167.017) scale(10.1078)">
<stop offset="0.26"/>
<stop offset="0.39" stop-color="#2C2C2C"/>
<stop offset="0.81" stop-color="#C2C2C2"/>
<stop offset="1" stop-color="white"/>
</radialGradient>
<radialGradient id="paint87_radial_433_89514" cx="0" cy="0" r="1" gradientUnits="userSpaceOnUse" gradientTransform="translate(44.2906 105.143) rotate(-167.017) scale(24.4108)">
<stop stop-color="#CFE2E8"/>
<stop offset="1" stop-color="#5C839E"/>
</radialGradient>
<radialGradient id="paint88_radial_433_89514" cx="0" cy="0" r="1" gradientUnits="userSpaceOnUse" gradientTransform="translate(20.5054 129.572) rotate(-167.017) scale(26.1283)">
<stop stop-color="#CFE2E8"/>
<stop offset="1" stop-color="#3F536B"/>
</radialGradient>
<radialGradient id="paint89_radial_433_89514" cx="0" cy="0" r="1" gradientUnits="userSpaceOnUse" gradientTransform="translate(19.6672 100.914) rotate(-167.017) scale(26.8094)">
<stop stop-color="#677B82"/>
<stop offset="1" stop-color="#353D5C"/>
</radialGradient>
<radialGradient id="paint90_radial_433_89514" cx="0" cy="0" r="1" gradientUnits="userSpaceOnUse" gradientTransform="translate(55.6676 102.721) rotate(-167.017) scale(19.2483)">
<stop offset="0.26"/>
<stop offset="0.39" stop-color="#2C2C2C"/>
<stop offset="0.81" stop-color="#C2C2C2"/>
<stop offset="1" stop-color="white"/>
</radialGradient>
<radialGradient id="paint91_radial_433_89514" cx="0" cy="0" r="1" gradientUnits="userSpaceOnUse" gradientTransform="translate(30.0208 97.264) rotate(-167.017) scale(19.9688)">
<stop stop-color="white"/>
<stop offset="0.38" stop-color="#C2C4C9"/>
<stop offset="1" stop-color="#5A5E6B"/>
</radialGradient>
<radialGradient id="paint92_radial_433_89514" cx="0" cy="0" r="1" gradientUnits="userSpaceOnUse" gradientTransform="translate(55.468 107.497) rotate(-167.017) scale(22.4168)">
<stop stop-color="white"/>
<stop offset="0.38" stop-color="#C2C4C9"/>
<stop offset="1" stop-color="#5A5E6B"/>
</radialGradient>
<radialGradient id="paint93_radial_433_89514" cx="0" cy="0" r="1" gradientUnits="userSpaceOnUse" gradientTransform="translate(22.3246 125.636) rotate(-167.017) scale(21.5285)">
<stop stop-color="white"/>
<stop offset="0.38" stop-color="#C2C4C9"/>
<stop offset="1" stop-color="#5A5E6B"/>
</radialGradient>
<radialGradient id="paint94_radial_433_89514" cx="0" cy="0" r="1" gradientUnits="userSpaceOnUse" gradientTransform="translate(44.0389 111.375) rotate(-167.017) scale(8.9233)">
<stop stop-color="#608BAB"/>
<stop offset="0.11" stop-color="#4A6C85"/>
<stop offset="0.25" stop-color="#334B5C"/>
<stop offset="0.39" stop-color="#21303B"/>
<stop offset="0.53" stop-color="#121A21"/>
<stop offset="0.68" stop-color="#080B0E"/>
<stop offset="0.83" stop-color="#020203"/>
<stop offset="1"/>
</radialGradient>
</defs>
</svg>
